<svg width="370" height="282" viewBox="0 0 370 282" xmlns="http://www.w3.org/2000/svg">
  <rect width="370" height="282" rx="10" fill="#0f0c29"/>
  <text x="20" y="30" fill="#00f0ff" font-family="Fira Code, monospace" font-size="15" font-weight="bold">Most Used Languages</text>
  <text x="20" y="48" fill="#6b6f8f" font-family="Fira Code, monospace" font-size="10">Last 15 active repos</text>
  
        <text x="20" y="66" fill="#8be9fd" font-family="Fira Code, monospace" font-size="13">Makefile</text>
        <text x="330" y="66" fill="#8be9fd" font-family="Fira Code, monospace" font-size="12" text-anchor="end">30.6%</text>
        <rect x="20" y="74" width="310" height="6" rx="3" fill="#1e1b3a"/>
        <rect x="20" y="74" width="88.7" height="6" rx="3" fill="#ff00ff"/>
        
        <text x="20" y="100" fill="#8be9fd" font-family="Fira Code, monospace" font-size="13">Jupyter Notebook</text>
        <text x="330" y="100" fill="#8be9fd" font-family="Fira Code, monospace" font-size="12" text-anchor="end">18.6%</text>
        <rect x="20" y="108" width="310" height="6" rx="3" fill="#1e1b3a"/>
        <rect x="20" y="108" width="53.9" height="6" rx="3" fill="#00f0ff"/>
        
        <text x="20" y="134" fill="#8be9fd" font-family="Fira Code, monospace" font-size="13">Python</text>
        <text x="330" y="134" fill="#8be9fd" font-family="Fira Code, monospace" font-size="12" text-anchor="end">13.9%</text>
        <rect x="20" y="142" width="310" height="6" rx="3" fill="#1e1b3a"/>
        <rect x="20" y="142" width="40.3" height="6" rx="3" fill="#8be9fd"/>
        
        <text x="20" y="168" fill="#8be9fd" font-family="Fira Code, monospace" font-size="13">C++</text>
        <text x="330" y="168" fill="#8be9fd" font-family="Fira Code, monospace" font-size="12" text-anchor="end">12.5%</text>
        <rect x="20" y="176" width="310" height="6" rx="3" fill="#1e1b3a"/>
        <rect x="20" y="176" width="36.2" height="6" rx="3" fill="#ff79c6"/>
        
        <text x="20" y="202" fill="#8be9fd" font-family="Fira Code, monospace" font-size="13">Vue</text>
        <text x="330" y="202" fill="#8be9fd" font-family="Fira Code, monospace" font-size="12" text-anchor="end">9.4%</text>
        <rect x="20" y="210" width="310" height="6" rx="3" fill="#1e1b3a"/>
        <rect x="20" y="210" width="27.2" height="6" rx="3" fill="#bd93f9"/>
        
        <text x="20" y="236" fill="#8be9fd" font-family="Fira Code, monospace" font-size="13">Java</text>
        <text x="330" y="236" fill="#8be9fd" font-family="Fira Code, monospace" font-size="12" text-anchor="end">7.5%</text>
        <rect x="20" y="244" width="310" height="6" rx="3" fill="#1e1b3a"/>
        <rect x="20" y="244" width="21.8" height="6" rx="3" fill="#50fa7b"/>
        
</svg>